<svg aria-hidden="true" style="position:absolute;width:0;height:0;overflow:hidden" xmlns="http://www.w3.org/2000/svg">
<defs>
<symbol id="icon-arrow" viewBox="0 0 32 32">
<path d="M26.02 3.149a1.882 1.882 0 0 0-2.126-1.602L7.118 3.905a1.883 1.883 0 0 0 .524 3.728l14.912-2.096 2.096 14.912a1.882 1.882 0 1 0 3.728-.524L26.02 3.149zM5.268 31.604l20.391-27.06-3.007-2.266-20.391 27.06 3.007 2.266z"/>
</symbol>
<symbol id="icon-arrow-up" viewBox="0 0 32 32">
<path stroke-linejoin="round" stroke-linecap="round" stroke-width="5.333" d="M2.667 22.667 16 9.334l13.333 13.333"/>
</symbol>
<symbol id="icon-clock" viewBox="0 0 32 32">
<path stroke-linejoin="round" stroke-linecap="round" stroke-width="2.4" d="M15.999 29.333c7.364 0 13.333-5.969 13.333-13.333S23.362 2.667 15.999 2.667C8.635 2.667 2.666 8.637 2.666 16s5.97 13.333 13.333 13.333z"/>
<path stroke-linejoin="round" stroke-linecap="round" stroke-width="2.4" d="M16 8v8l5.333 2.667"/>
</symbol>
<symbol id="icon-check" viewBox="0 0 40 32">
<path d="M5 11l-5 5 15 15 25-25-5-5-20 20-10-10z"></path>
</symbol>
<symbol id="icon-close" viewBox="0 0 32 32">
<path stroke-linejoin="round" stroke-linecap="round" stroke-width="2.5" d="M24 8 8 24M8 8l16 16"/>
</symbol>
<symbol id="icon-duo" viewBox="0 0 36 32">
<path d="M24 24.082v-1.649c2.203-1.241 4-4.337 4-7.432 0-4.971 0-9-6-9s-6 4.029-6 9c0 3.096 1.797 6.191 4 7.432v1.649c-6.784 0.555-12 3.888-12 7.918h28c0-4.030-5.216-7.364-12-7.918z"></path>
<path d="M10.225 24.854c1.728-1.13 3.877-1.989 6.243-2.513-0.47-0.556-0.897-1.176-1.265-1.844-0.95-1.726-1.453-3.627-1.453-5.497 0-2.689 0-5.228 0.956-7.305 0.928-2.016 2.598-3.265 4.976-3.734-0.529-2.39-1.936-3.961-5.682-3.961-6 0-6 4.029-6 9 0 3.096 1.797 6.191 4 7.432v1.649c-6.784 0.555-12 3.888-12 7.918h8.719c0.454-0.403 0.956-0.787 1.506-1.146z"></path>
</symbol>
<symbol id="icon-eye-off" viewBox="0 0 32 32">
<path stroke-linejoin="round" stroke-linecap="round" stroke-width="3.2" d="M23.921 23.92a13.43 13.43 0 0 1-7.92 2.747C6.668 26.667 1.334 16 1.334 16a24.605 24.605 0 0 1 6.747-7.92m5.12-2.427a12.161 12.161 0 0 1 2.8-.32C25.334 5.333 30.668 16 30.668 16a24.646 24.646 0 0 1-2.88 4.253m-8.96-1.426a4.01 4.01 0 0 1-2.855 1.273 3.996 3.996 0 0 1-3.779-2.501 3.995 3.995 0 0 1 .056-3.127c.219-.491.534-.932.927-1.298M1.334 1.333l29.333 29.333"/>
</symbol>
<symbol id="icon-eye-open" viewBox="0 0 32 32">
<path stroke-linejoin="round" stroke-linecap="round" stroke-width="3.2" d="M1.334 16S6.667 5.333 16.001 5.333 30.668 16 30.668 16s-5.333 10.667-14.667 10.667C6.668 26.667 1.334 16 1.334 16z"/>
<path stroke-linejoin="round" stroke-linecap="round" stroke-width="3.2" d="M16 20a4 4 0 1 0 0-8 4 4 0 0 0 0 8z"/>
</symbol>
<symbol id="icon-heart" viewBox="0 0 25 24" fill="none">
<path d="M21.3401 4.60999C20.8294 4.099 20.2229 3.69364 19.5555 3.41708C18.888 3.14052 18.1726 2.99817 17.4501 2.99817C16.7276 2.99817 16.0122 3.14052 15.3448 3.41708C14.6773 3.69364 14.0709 4.099 13.5601 4.60999L12.5001 5.66999L11.4401 4.60999C10.4084 3.5783 9.00915 2.9987 7.55012 2.9987C6.09108 2.9987 4.69181 3.5783 3.66012 4.60999C2.62843 5.64169 2.04883 7.04096 2.04883 8.49999C2.04883 9.95903 2.62843 11.3583 3.66012 12.39L4.72012 13.45L12.5001 21.23L20.2801 13.45L21.3401 12.39C21.8511 11.8792 22.2565 11.2728 22.533 10.6053C22.8096 9.93789 22.9519 9.22248 22.9519 8.49999C22.9519 7.77751 22.8096 7.0621 22.533 6.39464C22.2565 5.72718 21.8511 5.12075 21.3401 4.60999Z" stroke="#101828" stroke-width="2.3" stroke-linecap="round" stroke-linejoin="round"></path>
</symbol>
<symbol id="icon-person" viewBox="0 0 32 32">
<path d="M16 0a8 8 0 1 1 0 16 8 8 0 0 1 0-16zm0 20c8.84 0 16 3.58 16 8v4H0v-4c0-4.42 7.16-8 16-8z"/>
</symbol>
<symbol id="icon-question" viewBox="0 0 32 32">
<path d="M10.667 9.2c0-2.5 1.913-4.533 4.267-4.533h2.133c2.353 0 4.267 2.033 4.267 4.533v.255c0 1.544-.74 2.982-1.96 3.811l-2.813 1.92c-.826.564-1.505 1.34-1.976 2.256s-.717 1.943-.717 2.986v.106c0 1.254.953 2.267 2.133 2.267s2.133-1.013 2.133-2.267v-.099c0-.581.28-1.119.733-1.431l2.813-1.92c2.44-1.672 3.92-4.54 3.92-7.629V9.2c0-5.008-3.82-9.067-8.533-9.067h-2.133c-4.713 0-8.533 4.059-8.533 9.067 0 1.254.953 2.267 2.133 2.267s2.133-1.013 2.133-2.267zM16 31.867c.707 0 1.386-.298 1.886-.83s.781-1.252.781-2.003c0-.752-.281-1.472-.781-2.003s-1.178-.83-1.886-.83-1.386.298-1.886.83c-.5.531-.781 1.252-.781 2.003s.281 1.472.781 2.003 1.178.83 1.886.83z"/>
</symbol>
<symbol id="icon-star" viewBox="0 0 32 32">
<path stroke-width="2.4" d="M12.4 10.394 16 3.572l3.6 6.822a2.2 2.2 0 0 0 1.571 1.141l7.601 1.315-5.376 5.532a2.2 2.2 0 0 0-.6 1.846l1.098 7.635-6.922-3.404a2.199 2.199 0 0 0-1.941 0l-6.922 3.404 1.098-7.635a2.2 2.2 0 0 0-.6-1.846L3.231 12.85l7.601-1.315a2.202 2.202 0 0 0 1.571-1.141zm16.635 2.185zM7.767 28.031z"/>
</symbol>
</defs>
</svg>